<svg xmlns="http://www.w3.org/2000/svg" xmlns:xlink="http://www.w3.org/1999/xlink" width="500" zoomAndPan="magnify" viewBox="0 0 375 374.999991" height="500" preserveAspectRatio="xMidYMid meet" version="1.0"><defs><clipPath id="72d6f7774f"><path d="M 53.105469 25.582031 L 321.605469 25.582031 L 321.605469 349.582031 L 53.105469 349.582031 Z M 53.105469 25.582031 " clip-rule="nonzero"/></clipPath></defs><g clip-path="url(#72d6f7774f)"><path fill="#000000" d="M 133.261719 278.675781 L 133.261719 313.480469 C 133.261719 315.613281 134.515625 317.546875 136.464844 318.414062 L 166.382812 331.742188 C 169.914062 342.082031 179.605469 349.585938 191.109375 349.585938 C 205.582031 349.585938 217.351562 337.796875 217.351562 323.300781 L 217.351562 318.265625 L 224.988281 318.265625 C 238.019531 318.265625 248.621094 307.648438 248.621094 294.597656 L 248.621094 266.0625 L 262.445312 266.0625 C 285.539062 266.0625 304.320312 247.25 304.320312 224.121094 C 304.320312 210.917969 298.195312 199.121094 288.644531 191.425781 C 307.605469 186.261719 321.585938 168.871094 321.585938 148.269531 C 321.585938 123.613281 301.5625 103.558594 276.941406 103.558594 L 269.140625 103.558594 L 269.140625 88.40625 C 269.140625 74.09375 257.515625 62.453125 243.230469 62.453125 L 227.773438 62.453125 L 227.773438 55.617188 C 227.773438 39.058594 214.320312 25.582031 197.785156 25.582031 L 194.851562 25.582031 C 187.285156 25.582031 180.386719 28.421875 175.105469 33.070312 C 107.664062 35.832031 53.128906 92.449219 53.128906 160.289062 C 53.128906 212.351562 85.175781 259.449219 133.257812 278.671875 Z M 111.992188 159.394531 C 111.992188 130.507812 135.457031 107.007812 164.296875 107.007812 C 164.484375 107.007812 164.679688 107.035156 164.867188 107.039062 L 164.867188 162.40625 L 145.066406 162.40625 C 142.089844 162.40625 139.671875 164.824219 139.671875 167.804688 L 139.671875 205.582031 C 123.21875 196.75 111.992188 179.367188 111.992188 159.394531 Z M 150.457031 173.207031 L 164.867188 173.207031 L 164.867188 211.746094 C 164.679688 211.746094 164.484375 211.777344 164.296875 211.777344 C 159.5 211.777344 154.871094 211.074219 150.457031 209.855469 Z M 197.785156 36.382812 C 208.375 36.382812 216.988281 45.011719 216.988281 55.617188 L 216.988281 67.851562 C 216.988281 70.832031 219.402344 73.253906 222.378906 73.253906 L 243.230469 73.253906 C 251.570312 73.253906 258.359375 80.050781 258.359375 88.40625 L 258.359375 108.957031 C 258.359375 111.9375 260.773438 114.355469 263.75 114.355469 L 276.941406 114.355469 C 295.613281 114.355469 310.800781 129.570312 310.800781 148.269531 C 310.800781 166.96875 295.613281 182.179688 276.941406 182.179688 L 237.363281 182.179688 C 234.386719 182.179688 231.972656 184.601562 231.972656 187.582031 C 231.972656 190.5625 234.386719 192.980469 237.363281 192.980469 L 262.445312 192.980469 C 279.589844 192.980469 293.539062 206.949219 293.539062 224.121094 C 293.539062 241.292969 279.589844 255.261719 262.445312 255.261719 L 243.230469 255.261719 C 240.253906 255.261719 237.839844 257.683594 237.839844 260.664062 L 237.839844 294.597656 C 237.839844 301.691406 232.074219 307.464844 224.988281 307.464844 L 211.957031 307.464844 C 208.980469 307.464844 206.566406 309.882812 206.566406 312.863281 L 206.566406 323.300781 C 206.566406 331.839844 199.632812 338.785156 191.109375 338.785156 C 182.585938 338.785156 175.652344 331.839844 175.652344 323.300781 L 175.652344 224.277344 L 197.984375 243.847656 C 199.007812 244.746094 200.273438 245.1875 201.53125 245.1875 C 203.03125 245.1875 204.523438 244.5625 205.589844 243.34375 C 207.554688 241.097656 207.328125 237.6875 205.085938 235.726562 L 175.652344 209.9375 L 175.652344 166.800781 L 225.617188 129.273438 C 228 127.484375 228.476562 124.097656 226.695312 121.710938 C 224.910156 119.335938 221.535156 118.839844 219.144531 120.632812 L 175.652344 153.300781 L 175.652344 55.617188 C 175.652344 45.011719 184.265625 36.382812 194.855469 36.382812 L 197.789062 36.382812 Z M 167.003906 44.546875 C 165.640625 47.976562 164.867188 51.703125 164.867188 55.617188 L 164.867188 96.242188 C 164.679688 96.242188 164.484375 96.207031 164.296875 96.207031 C 129.511719 96.207031 101.210938 124.550781 101.210938 159.394531 C 101.210938 186.683594 118.609375 209.921875 142.855469 218.738281 C 142.957031 218.785156 143.066406 218.8125 143.171875 218.855469 C 149.789062 221.222656 156.878906 222.578125 164.292969 222.578125 C 164.480469 222.578125 164.675781 222.550781 164.863281 222.546875 L 164.863281 319.246094 L 144.039062 309.96875 L 144.039062 274.957031 C 144.039062 272.6875 142.621094 270.664062 140.5 269.886719 C 94.6875 253.148438 63.910156 209.105469 63.910156 160.292969 C 63.910156 101.09375 109.28125 51.257812 167 44.550781 Z M 167.003906 44.546875 " fill-opacity="1" fill-rule="nonzero"/></g></svg>